<?xml version="1.0" standalone="no"?>
<!DOCTYPE svg PUBLIC "-//W3C//DTD SVG 20010904//EN"
 "http://www.w3.org/TR/2001/REC-SVG-20010904/DTD/svg10.dtd">
<svg version="1.0" xmlns="http://www.w3.org/2000/svg"
 width="167.000000pt" height="167.000000pt" viewBox="0 0 167.000000 167.000000"
 preserveAspectRatio="xMidYMid meet">
<metadata>
Created by potrace 1.11, written by Peter Selinger 2001-2013
</metadata>
<g transform="translate(0.000000,167.000000) scale(0.100000,-0.100000)"
fill="#000000" stroke="none">
<path d="M425 1157 c-27 -73 -53 -143 -58 -157 -13 -31 -12 -29 -22 -65 -4
-16 -11 -34 -15 -40 -4 -5 -22 -56 -40 -112 -19 -56 -38 -99 -44 -96 -5 3 -6
1 -2 -5 3 -6 -5 -44 -20 -84 -14 -40 -28 -83 -31 -95 -3 -13 -10 -20 -16 -16
-5 3 -7 1 -4 -4 4 -6 0 -30 -8 -53 -17 -49 -16 -53 21 -53 19 1 22 -2 13 -8
-11 -7 -9 -13 9 -27 l23 -18 -20 -25 c-11 -13 -21 -19 -22 -11 -1 6 -2 17 -3
24 0 6 -9 12 -20 14 -14 2 -16 0 -7 -9 15 -15 14 -30 -2 -21 -7 4 -9 3 -4 -2
5 -5 13 -10 18 -10 5 -1 12 -2 15 -3 4 0 0 -9 -7 -18 -13 -17 -13 -17 7 -1 11
10 34 19 50 20 29 2 56 20 53 35 -1 4 -1 16 0 26 1 15 5 16 24 7 21 -11 21
-10 3 4 -17 14 -15 20 6 17 10 -1 3 28 -10 39 -9 7 -9 7 -2 -2 7 -8 4 -19 -11
-34 -11 -12 -21 -31 -22 -42 0 -11 -5 -18 -11 -15 -5 4 -6 1 -1 -7 6 -9 4 -11
-5 -5 -8 5 -11 4 -7 -2 3 -5 0 -10 -8 -10 -21 0 -19 10 5 25 20 12 27 37 13
45 -5 2 -2 2 4 1 7 -2 17 5 23 16 14 26 13 30 -7 23 -12 -5 -10 0 6 16 12 12
20 29 17 37 -4 9 -2 12 5 8 8 -4 9 1 4 15 -4 13 -2 21 5 21 6 0 9 4 6 8 -3 5
1 9 9 10 8 1 22 3 30 4 8 1 12 4 10 8 -2 3 0 12 5 20 11 18 -10 49 -29 43 -14
-4 -14 -3 -1 5 8 6 18 8 23 5 5 -3 7 0 5 8 -3 8 -12 13 -19 11 -10 -3 -9 1 3
15 8 10 14 26 13 35 -2 10 0 17 3 16 15 -3 42 15 36 24 -3 5 -13 4 -22 -4 -15
-12 -16 -11 -3 4 10 14 18 15 32 7 12 -6 18 -6 17 0 -2 5 5 16 15 23 18 13 17
14 -2 14 -11 0 -17 -5 -14 -10 4 -5 1 -6 -7 -1 -9 6 -11 4 -5 -6 7 -11 6 -12
-7 -2 -8 7 -18 9 -23 5 -4 -4 0 5 9 19 9 14 14 29 11 32 -3 4 -2 5 1 3 7 -6
44 26 44 37 0 5 -7 4 -15 -3 -9 -7 -15 -8 -15 -2 0 5 8 13 17 16 15 6 15 8 3
16 -11 7 -12 10 -2 10 8 0 10 5 6 13 -4 6 -4 9 1 5 4 -4 20 1 35 12 20 14 30
16 38 8 9 -9 12 -9 12 0 0 7 -7 15 -15 18 -8 4 -15 11 -15 17 0 6 8 3 18 -6
13 -14 17 -35 17 -101 0 -46 -3 -82 -7 -79 -5 2 -8 -1 -8 -6 0 -6 5 -11 10
-11 6 0 10 -5 10 -11 0 -6 -7 -8 -16 -5 -14 6 -15 4 -3 -10 16 -20 22 -104 7
-121 -7 -9 -7 -13 1 -13 12 0 10 -27 -2 -47 -5 -8 -4 -13 2 -13 6 0 11 -5 11
-11 0 -5 -3 -8 -7 -6 -5 3 -14 -2 -22 -10 -11 -12 -10 -14 5 -11 13 2 19 -4
20 -22 4 -41 8 -54 22 -65 10 -8 9 -11 -7 -11 -11 0 -18 3 -16 6 2 4 -3 7 -11
7 -10 0 -11 -4 -5 -10 7 -7 7 -17 0 -31 -9 -18 -8 -18 8 2 17 21 21 22 32 8 7
-9 18 -13 25 -9 6 4 5 -1 -3 -10 -7 -9 -10 -17 -7 -17 4 0 1 -6 -6 -14 -7 -8
-16 -12 -20 -9 -15 8 -8 -5 9 -18 9 -8 14 -9 11 -4 -4 6 3 17 15 25 20 12 21
12 8 -4 -13 -15 -11 -16 20 -11 23 4 29 2 19 -4 -8 -5 -17 -8 -20 -6 -3 2 -5
-7 -5 -20 0 -13 3 -21 8 -18 4 2 7 11 7 19 0 8 4 14 10 14 5 0 9 -5 7 -12 -1
-7 9 -13 25 -13 15 -1 24 3 21 7 -2 5 -14 6 -25 2 -14 -4 -18 -3 -13 6 4 7 17
9 32 5 18 -4 23 -2 17 6 -4 7 -3 9 4 5 6 -3 9 -15 7 -26 -2 -11 1 -20 7 -20 5
0 8 7 5 15 -4 8 -2 17 3 20 5 3 12 -4 15 -16 5 -15 10 -18 15 -9 4 6 10 11 14
11 3 -1 17 1 31 5 24 6 25 7 8 21 -16 13 -16 13 5 3 26 -13 31 -42 5 -34 -15
5 -15 4 -3 -4 18 -13 30 -6 30 18 0 10 5 22 12 26 7 4 8 3 4 -4 -4 -7 -1 -12
8 -12 9 0 16 -5 16 -12 0 -6 3 -8 6 -5 4 4 0 17 -9 30 -12 19 -13 24 -2 24 8
0 12 -4 10 -8 -3 -3 2 -12 10 -19 13 -11 14 -10 8 6 -6 17 -5 18 12 4 10 -8
16 -10 12 -3 -4 6 -3 14 3 18 13 8 -11 46 -25 38 -5 -4 -2 3 8 15 11 12 16 26
11 33 -4 8 -3 10 4 5 12 -7 16 5 13 32 -1 6 3 12 8 12 5 0 8 -9 6 -20 -3 -18
-1 -19 18 -9 33 17 35 22 7 14 -19 -6 -22 -4 -14 5 17 17 6 50 -14 43 -10 -3
-7 2 6 12 12 9 21 23 20 30 -2 8 0 13 4 12 12 -3 36 36 31 49 -3 8 3 11 19 8
l23 -5 -23 10 c-12 6 -30 8 -40 5 -13 -5 -14 -4 -3 4 7 5 10 15 7 21 -4 6 -2
11 3 11 6 0 11 -4 11 -9 0 -5 7 -11 15 -15 12 -4 13 -2 5 13 -5 11 -15 22 -22
24 -10 4 -10 6 0 6 7 1 11 5 7 10 -3 5 2 17 11 25 11 12 12 16 2 16 -8 0 -6 5
5 11 10 6 21 8 24 5 4 -3 1 -6 -6 -6 -7 0 -10 -4 -6 -9 3 -5 1 -12 -5 -16 -6
-4 -7 -11 -4 -17 4 -6 1 -14 -5 -18 -9 -5 -9 -10 1 -18 11 -8 14 -6 16 9 4 43
6 49 14 49 5 0 7 4 3 9 -3 6 2 14 11 19 15 8 15 10 0 15 -12 5 -15 3 -10 -6 4
-6 3 -8 -1 -4 -5 4 -10 13 -11 20 -1 7 -4 19 -6 27 -3 8 -3 12 -1 7 8 -12 22
3 17 17 -3 8 0 17 6 21 9 6 9 9 0 15 -8 5 -3 7 13 7 14 -1 23 -6 19 -11 -3 -5
1 -6 8 -1 10 6 12 4 7 -9 -4 -10 -3 -15 4 -11 5 4 7 15 4 25 -4 13 0 17 16 16
12 0 24 6 26 14 4 12 3 12 -5 1 -7 -9 -12 -10 -16 -2 -4 6 -13 8 -19 4 -19
-12 -46 -13 -52 -3 -3 6 1 7 10 4 11 -5 14 -2 9 12 -5 16 -4 16 5 4 9 -13 11
-13 11 0 0 13 1 13 10 0 9 -14 11 -13 14 19 1 17 26 28 26 11 0 -6 -4 -8 -10
-5 -17 11 -11 -7 8 -21 12 -8 17 -26 17 -57 0 -25 -3 -43 -7 -40 -5 2 -8 -1
-8 -8 0 -10 -3 -10 -12 -1 -7 7 -16 12 -22 12 -5 0 -1 -6 9 -14 11 -8 25 -12
32 -9 8 3 13 -3 13 -18 0 -17 -3 -20 -9 -11 -6 11 -9 9 -13 -6 -4 -13 -1 -19
6 -16 6 2 12 -7 12 -21 2 -22 0 -24 -15 -13 -11 9 -10 6 3 -10 12 -13 14 -22
7 -22 -7 0 -9 -5 -4 -12 12 -19 11 -121 -1 -137 -8 -11 -8 -13 1 -8 8 5 11 -2
11 -23 -1 -16 -6 -30 -11 -30 -6 0 -2 -7 9 -16 10 -8 14 -13 9 -10 -6 2 -11
-6 -11 -19 0 -13 4 -21 8 -19 5 3 6 10 3 15 -4 5 -1 9 4 9 14 0 14 -6 1 -30
-6 -11 -16 -18 -23 -16 -6 1 -9 1 -4 -1 4 -3 5 -9 1 -14 -3 -5 0 -8 8 -7 7 2
12 -4 10 -13 -1 -9 5 -19 13 -23 10 -3 13 -11 9 -18 -4 -7 -4 -10 1 -6 4 4 14
0 22 -10 12 -16 13 -16 7 2 -6 16 -4 17 13 8 15 -8 23 -8 33 1 8 7 10 8 7 1
-4 -6 2 -19 12 -28 16 -15 19 -15 24 -2 4 10 1 13 -9 9 -16 -6 -20 22 -4 32 6
4 7 -1 3 -11 -3 -10 -2 -15 3 -12 14 9 56 -10 49 -22 -3 -5 -1 -10 4 -10 6 0
11 5 11 10 0 6 8 10 18 10 14 0 15 2 2 10 -8 5 -10 10 -4 10 5 0 15 -5 22 -12
9 -9 11 -6 7 11 -2 12 0 19 6 16 5 -4 7 -10 5 -14 -3 -4 -1 -13 5 -21 7 -13 9
-12 9 2 0 10 10 22 23 28 20 10 20 10 4 -3 -15 -13 -15 -15 -2 -20 8 -4 14 -1
12 5 -1 7 3 12 8 13 15 1 72 34 60 35 -6 0 -20 -6 -31 -14 -18 -13 -21 -12
-32 4 -10 16 -8 18 12 14 27 -5 38 13 30 48 -13 50 -13 92 -1 107 8 9 8 12 1
8 -7 -4 -14 3 -17 18 -4 26 22 52 38 37 5 -4 5 -2 2 5 -4 6 -17 9 -30 5 -21
-5 -21 -5 -4 12 19 19 23 46 7 46 -6 0 -10 47 -10 121 0 93 3 119 13 113 6 -4
9 -4 5 1 -4 4 -2 15 5 24 10 14 10 14 -4 4 -21 -17 -32 -5 -14 14 17 17 20 43
5 43 -6 0 -10 27 -10 61 0 45 3 58 13 53 9 -6 9 -4 1 7 -6 8 -14 26 -16 42 -4
20 -1 27 11 27 15 1 15 1 0 10 -10 6 -15 20 -14 35 2 14 -1 41 -6 60 -16 56
-40 63 -234 64 l-170 1 -39 -110 c-22 -61 -44 -110 -48 -110 -5 0 -7 -4 -4 -8
3 -5 -6 -40 -20 -78 -15 -38 -29 -79 -31 -91 -3 -13 -10 -20 -16 -16 -6 3 -7
1 -3 -5 4 -6 -1 -28 -10 -49 -10 -21 -16 -42 -15 -47 1 -4 -3 -14 -9 -20 -5
-7 -8 -15 -5 -18 3 -3 -1 -11 -9 -17 -10 -8 -16 -9 -21 -1 -4 6 -3 10 2 9 19
-3 27 2 14 10 -12 8 -19 90 -11 126 1 6 1 12 0 15 -1 3 -2 44 -3 93 -2 66 1
86 11 82 8 -3 7 4 -4 20 -13 20 -14 25 -3 25 9 0 10 3 4 8 -5 4 -11 32 -12 62
-3 69 -18 97 -57 109 -17 6 -103 10 -192 10 l-161 -1 -48 -131z m261 61 c3 -3
-1 -12 -9 -20 -18 -18 -73 -17 -69 1 1 7 -2 10 -7 6 -6 -3 -7 -13 -4 -23 6
-15 5 -16 -12 -2 -17 14 -18 13 -12 -2 3 -10 1 -20 -5 -24 -7 -4 -8 -3 -4 4
11 19 -5 14 -21 -5 -11 -14 -11 -11 1 13 8 17 12 35 8 38 -13 14 19 22 73 21
31 -1 58 -4 61 -7z m641 -1 c3 -4 0 -14 -7 -22 -9 -11 -16 -13 -24 -5 -5 5
-15 10 -20 10 -6 0 -4 -5 4 -10 12 -8 11 -10 -5 -10 -12 0 -27 6 -34 13 -10
10 -11 9 -6 -4 4 -10 1 -20 -6 -25 -7 -4 -10 -3 -6 3 4 6 0 14 -9 17 -8 3 -12
2 -9 -4 3 -6 0 -10 -7 -10 -9 0 -9 -3 2 -10 9 -6 10 -10 3 -10 -19 0 -21 13
-7 45 12 29 15 31 68 29 31 -1 59 -4 63 -7z m-780 -139 c2 -17 0 -19 -7 -8 -5
8 -6 18 -4 22 8 12 10 10 11 -14z m629 -6 c-17 -16 -18 -16 -5 5 7 12 15 20
18 17 3 -2 -3 -12 -13 -22z m-646 -13 c0 -5 -4 -9 -8 -9 -5 0 -9 7 -9 15 0 8
4 12 9 9 4 -3 8 -9 8 -15z m652 -26 c-3 -16 -7 -22 -10 -15 -4 13 4 42 11 42
2 0 2 -12 -1 -27z m-648 -8 c-10 -8 -23 -15 -28 -15 -6 0 -1 7 10 15 10 8 23
15 28 15 6 0 1 -7 -10 -15z m652 -51 c1 -9 0 -13 -4 -10 -3 4 -7 14 -8 22 -1
9 0 13 4 10 3 -4 7 -14 8 -22z m-675 -1 c13 -17 13 -17 -6 -3 -11 8 -22 16
-24 17 -2 2 0 3 6 3 6 0 17 -8 24 -17z m35 -13 c0 -12 -4 -16 -9 -11 -5 5 -6
14 -3 20 10 15 12 14 12 -9z m630 -12 l19 -23 -25 20 c-14 11 -27 21 -29 22
-2 2 0 3 6 3 5 0 18 -10 29 -22z m-679 -8 c2 -25 -9 -32 -27 -18 -12 8 -12 9
3 4 9 -3 17 -1 17 4 0 6 -6 10 -12 10 -9 0 -8 4 2 10 8 5 15 10 15 10 1 0 1
-9 2 -20z m653 5 c0 -2 -9 -3 -19 -2 -11 0 -18 5 -15 9 4 6 34 0 34 -7z m-20
-25 c0 -5 -8 -10 -17 -10 -15 0 -16 2 -3 10 19 12 20 12 20 0z m410 -10 c0 -5
-2 -10 -4 -10 -3 0 -8 5 -11 10 -3 6 -1 10 4 10 6 0 11 -4 11 -10z m0 -320 c0
-5 -2 -10 -4 -10 -3 0 -8 5 -11 10 -3 6 -1 10 4 10 6 0 11 -4 11 -10z m-525
-21 c-4 -5 -14 -8 -23 -8 -15 1 -15 2 1 6 9 2 14 9 11 15 -4 7 -2 8 5 4 6 -4
9 -12 6 -17z m-643 -10 c-7 -29 -42 -38 -42 -11 0 13 2 14 9 3 5 -8 11 -9 15
-3 4 6 -2 15 -11 21 -15 9 -14 10 7 7 15 -2 24 -9 22 -17z m854 -201 c-1 -13
6 -26 14 -30 12 -5 12 -7 -3 -7 -10 -1 -15 -6 -12 -11 4 -6 11 -7 17 -4 7 5 8
2 4 -5 -6 -9 -13 -8 -27 5 -11 9 -17 19 -14 22 3 3 -1 12 -8 21 -11 14 -10 15
7 1 18 -14 18 -13 12 8 -4 12 -3 22 2 22 5 0 9 -10 8 -22z m311 2 c1 -11 -3
-23 -9 -26 -7 -5 -9 -1 -5 9 3 10 2 17 -2 17 -5 0 -11 -6 -14 -12 -2 -7 -8
-10 -12 -5 -5 4 0 14 11 22 25 19 29 19 31 -5z m-1302 -10 c4 -6 11 -7 17 -4
7 4 8 2 4 -5 -6 -9 -12 -9 -24 1 -10 7 -19 14 -21 15 -2 2 1 3 7 3 6 0 14 -5
17 -10z m699 -32 c-3 -5 -12 -4 -20 3 -19 16 -18 18 6 12 11 -3 17 -9 14 -15z
m-177 -50 c-3 -8 -6 -5 -6 6 -1 11 2 17 5 13 3 -3 4 -12 1 -19z m623 12 c8 -5
12 -11 10 -14 -3 -2 -14 2 -24 10 -22 15 -10 19 14 4z m-590 -4 c0 -3 -4 -8
-10 -11 -5 -3 -10 -1 -10 4 0 6 5 11 10 11 6 0 10 -2 10 -4z"/>
<path d="M1573 1025 c0 -8 4 -12 9 -9 5 3 6 10 3 15 -9 13 -12 11 -12 -6z"/>
<path d="M913 1005 c0 -8 4 -12 9 -9 5 3 6 10 3 15 -9 13 -12 11 -12 -6z"/>
<path d="M1540 992 c0 -5 7 -9 15 -9 8 0 12 4 9 9 -3 4 -9 8 -15 8 -5 0 -9 -4
-9 -8z"/>
<path d="M896 952 c-2 -4 2 -15 9 -25 11 -15 13 -15 18 -2 4 8 1 14 -6 12 -7
-1 -11 4 -9 11 2 13 -4 16 -12 4z"/>
<path d="M1540 952 c0 -5 7 -9 15 -9 8 0 12 4 9 9 -3 4 -9 8 -15 8 -5 0 -9 -4
-9 -8z"/>
<path d="M509 904 c-1 -5 -1 -13 0 -18 1 -5 -5 -6 -13 -3 -15 6 -29 -7 -32
-30 -3 -20 12 -24 26 -8 7 8 17 15 23 15 7 0 7 -4 -1 -12 -17 -17 -15 -26 8
-38 14 -7 20 -7 20 0 0 5 -7 10 -15 10 -8 0 -15 5 -15 10 0 6 5 9 12 8 16 -4
18 50 1 63 -7 6 -14 8 -14 3z m17 -30 c1 -9 0 -13 -4 -10 -3 4 -7 14 -8 22 -1
9 0 13 4 10 3 -4 7 -14 8 -22z m-32 -3 c3 -5 -1 -14 -8 -20 -12 -10 -14 -9
-11 6 2 10 4 19 4 21 2 5 10 2 15 -7z"/>
<path d="M910 891 c0 -6 4 -13 10 -16 6 -3 7 1 4 9 -7 18 -14 21 -14 7z"/>
<path d="M910 851 c0 -7 -5 -9 -12 -5 -7 5 -8 3 -3 -5 5 -9 10 -10 18 -2 6 6
8 14 4 18 -4 3 -7 1 -7 -6z"/>
<path d="M1163 843 c-16 -6 -17 -36 -1 -31 6 2 12 12 14 21 1 9 2 17 1 16 -1
0 -8 -3 -14 -6z"/>
<path d="M1085 819 c-4 -6 -4 -13 -1 -16 3 -3 1 -12 -6 -20 -14 -17 -4 -27 19
-19 15 6 15 8 3 16 -14 9 -7 14 13 11 4 -1 3 8 -3 19 -12 23 -16 24 -25 9z"/>
<path d="M452 804 c-12 -8 -27 -25 -34 -37 -10 -19 -9 -20 4 -10 8 7 19 9 23
5 5 -4 5 1 2 10 -3 10 -2 20 3 23 5 3 11 -3 13 -12 3 -13 5 -12 6 5 0 13 6 20
11 17 6 -3 10 -1 10 4 0 15 -12 14 -38 -5z"/>
<path d="M903 801 c-1 -9 -3 -21 -5 -28 -2 -6 2 -11 7 -11 6 -1 9 6 7 14 -2 9
1 21 7 28 8 9 7 13 -2 13 -7 0 -14 -7 -14 -16z"/>
<path d="M1541 794 c0 -11 3 -14 6 -6 3 7 2 16 -1 19 -3 4 -6 -2 -5 -13z"/>
<path d="M495 790 c-3 -6 1 -7 9 -4 18 7 21 14 7 14 -6 0 -13 -4 -16 -10z"/>
<path d="M520 780 c-9 -6 -10 -10 -3 -10 6 0 15 5 18 10 8 12 4 12 -15 0z"/>
<path d="M1120 776 c0 -2 7 -7 16 -10 8 -3 12 -2 9 4 -6 10 -25 14 -25 6z"/>
<path d="M495 749 c1 -10 4 -21 8 -24 4 -3 5 -2 2 2 -3 3 0 12 5 18 7 9 6 14
-3 18 -9 3 -13 -2 -12 -14z"/>
<path d="M1110 749 c0 -5 5 -7 10 -4 6 3 10 8 10 11 0 2 -4 4 -10 4 -5 0 -10
-5 -10 -11z"/>
<path d="M1540 752 c0 -5 7 -9 15 -9 8 0 12 4 9 9 -3 4 -9 8 -15 8 -5 0 -9 -4
-9 -8z"/>
<path d="M1134 719 c-3 -6 -2 -15 3 -20 5 -5 9 -1 9 11 0 23 -2 24 -12 9z"/>
<path d="M1540 712 c0 -5 7 -9 15 -9 8 0 12 4 9 9 -3 4 -9 8 -15 8 -5 0 -9 -4
-9 -8z"/>
<path d="M425 690 c-4 -6 -10 -8 -15 -5 -4 3 -13 -2 -20 -10 -10 -12 -10 -15
1 -15 10 -1 9 -4 -4 -14 -15 -12 -15 -15 -2 -26 8 -7 16 -9 17 -4 0 5 2 14 3
19 2 6 3 16 4 23 0 7 6 10 13 6 6 -4 8 -3 4 4 -3 6 2 15 11 21 10 6 13 11 6
11 -6 0 -15 -5 -18 -10z"/>
<path d="M1090 689 c0 -5 5 -7 10 -4 6 3 10 8 10 11 0 2 -4 4 -10 4 -5 0 -10
-5 -10 -11z"/>
<path d="M518 673 c7 -3 16 -2 19 1 4 3 -2 6 -13 5 -11 0 -14 -3 -6 -6z"/>
<path d="M1540 672 c0 -5 7 -9 15 -9 8 0 12 4 9 9 -3 4 -9 8 -15 8 -5 0 -9 -4
-9 -8z"/>
<path d="M1073 655 c0 -8 4 -12 9 -9 5 3 6 10 3 15 -9 13 -12 11 -12 -6z"/>
<path d="M524 621 c0 -11 4 -17 8 -15 4 3 8 12 8 20 0 8 -4 14 -8 14 -4 0 -8
-9 -8 -19z"/>
<path d="M1540 632 c0 -5 7 -9 15 -9 8 0 12 4 9 9 -3 4 -9 8 -15 8 -5 0 -9 -4
-9 -8z"/>
<path d="M390 590 c0 -4 7 -7 15 -6 23 3 26 12 5 13 -11 1 -20 -2 -20 -7z"/>
<path d="M1155 570 c-3 -5 -1 -10 4 -10 6 0 11 5 11 10 0 6 -2 10 -4 10 -3 0
-8 -4 -11 -10z"/>
<path d="M1034 552 c3 -5 0 -13 -6 -15 -9 -4 -10 -6 -1 -6 17 -1 25 16 12 25
-7 4 -9 3 -5 -4z"/>
<path d="M994 531 c4 -6 3 -17 -3 -24 -7 -9 -5 -13 8 -13 19 0 18 31 -2 43 -6
3 -7 1 -3 -6z"/>
<path d="M1155 530 c-3 -5 -1 -10 4 -10 6 0 11 5 11 10 0 6 -2 10 -4 10 -3 0
-8 -4 -11 -10z"/>
<path d="M1547 510 c10 -11 19 -20 21 -20 1 0 -2 9 -8 20 -6 11 -15 20 -20 20
-6 0 -2 -9 7 -20z"/>
<path d="M331 497 c-7 -7 -7 -14 0 -24 16 -18 32 -16 25 3 -5 13 -2 15 14 11
11 -3 18 -2 15 3 -8 13 -43 18 -54 7z m16 -12 c0 -8 -4 -12 -9 -9 -5 3 -6 10
-3 15 9 13 12 11 12 -6z"/>
<path d="M1157 489 c7 -7 15 -10 18 -7 3 3 -2 9 -12 12 -14 6 -15 5 -6 -5z"/>
<path d="M996 468 c3 -5 10 -6 15 -3 13 9 11 12 -6 12 -8 0 -12 -4 -9 -9z"/>
<path d="M325 450 c3 -6 1 -10 -4 -10 -17 0 -13 -17 5 -24 9 -4 13 -2 8 5 -4
6 -1 15 6 19 8 5 7 9 -5 13 -9 4 -13 3 -10 -3z"/>
<path d="M1546 448 c3 -5 10 -6 15 -3 13 9 11 12 -6 12 -8 0 -12 -4 -9 -9z"/>
<path d="M1151 423 c7 -12 15 -20 18 -17 3 2 -3 12 -13 22 -17 16 -18 16 -5
-5z"/>
<path d="M520 420 c-12 -7 -10 -9 7 -7 12 0 19 5 17 9 -6 10 -6 10 -24 -2z"/>
<path d="M1547 409 c7 -7 15 -10 18 -7 3 3 -2 9 -12 12 -14 6 -15 5 -6 -5z"/>
<path d="M975 400 c-4 -6 -11 -7 -17 -4 -7 4 -8 2 -4 -4 10 -16 23 -15 30 3 6
17 0 20 -9 5z"/>
<path d="M936 371 c-3 -5 4 -17 17 -27 15 -14 18 -14 9 -2 -10 13 -10 17 0 20
8 3 6 6 -5 11 -9 3 -19 2 -21 -2z"/>
<path d="M160 351 c-12 -13 -12 -14 3 -8 17 6 43 -24 30 -37 -3 -3 -2 -6 4 -6
20 0 19 25 -2 45 -19 18 -23 19 -35 6z"/>
<path d="M553 363 c4 -6 3 -14 -3 -18 -16 -10 -12 -25 8 -25 14 0 14 2 3 9
-11 7 -10 10 4 12 17 4 17 5 0 19 -11 8 -16 10 -12 3z"/>
<path d="M590 269 c0 -5 5 -7 10 -4 6 3 10 8 10 11 0 2 -4 4 -10 4 -5 0 -10
-5 -10 -11z"/>
<path d="M865 259 c-4 -6 -5 -12 -2 -15 2 -3 7 2 10 11 7 17 1 20 -8 4z"/>
</g>
</svg>
